{"title":"60 Minutes AU - 14-8-2016","uid":15617818,"size":439551971,"categoryP":"video","categoryS":"tv_shows","magnet":"?xt=urn:btih:ae6e37e9e1655810575a90e7c148b4b04d5cc9fe&amp;dn=60+Minutes+AU+-+14-8-2016&amp;tr=udp%3A%2F%2Ftracker.leechers-paradise.org%3A6969&amp;tr=udp%3A%2F%2Fzer0day.ch%3A1337&amp;tr=udp%3A%2F%2Fopen.demonii.com%3A1337&amp;tr=udp%3A%2F%2Ftracker.coppersurfer.tk%3A6969&amp;tr=udp%3A%2F%2Fexodus.desync.com%3A6969","seeders":1,"leechers":2,"uploader":"Bullrout","files":1,"time":1471851078,"description":"60 Minutes AU - 14-8-2016\r\n\r\nMeet two little girls trapped in the wrong body. Emma and Izzy were born boys and now want to be female forever, plus Alison Langdon on the sets of China's massive movie industry and meet the scientists who can tell you how smart your dog is.\r\n\r\nComplete name                            : 60 Minutes AU - 14-8-2016.mp4\r\nFormat                                   : MPEG-4\r\nFormat profile                           : Base Media / Version 2\r\nCodec ID                                 : mp42 (mp42/isom/avc1)\r\nFile size                                : 419 MiB\r\nDuration                                 : 52mn 30s\r\nOverall bit rate mode                    : Variable\r\nOverall bit rate                         : 1 116 Kbps\r\n\r\nVideo\r\nID                                       : 2\r\nFormat                                   : AVC\r\nFormat/Info                              : Advanced Video Codec\r\nFormat profile                           :   \r\nFormat settings, CABAC                   : Yes\r\nFormat settings, ReFrames                : 3 frames\r\nCodec ID                                 : avc1\r\nCodec ID/Info                            : Advanced Video Coding\r\nDuration                                 : 52mn 30s\r\nBit rate mode                            : Variable\r\nBit rate                                 : 985 Kbps\r\nMaximum bit rate                         : 1 000 Kbps\r\nWidth                                    : 720 pixels\r\nHeight                                   : 404 pixels\r\nDisplay aspect ratio                     : 16:9\r\nOriginal display aspect ratio            : 16:9\r\nFrame rate mode                          : Constant\r\nFrame rate                               : 25.000 fps\r\nStandard                                 : PAL\r\nColor space                              : YUV\r\nChroma subsampling                       : 4:2:0\r\nBit depth                                : 8 bits\r\nScan type                                : Progressive\r\nBits/(Pixel*Frame)                       : 0.135\r\nStream size                              : 370 MiB (88%)\r\nWriting library                          : x264 core 112\r\nColor range                              : Limited\r\nColor primaries                          : BT.601 PAL\r\nTransfer characteristics                 : BT.470 System B, BT.470 System G\r\nMatrix coefficients                      : BT.601\r\n\r\nAudio\r\nID                                       : 1\r\nFormat                                   : AAC\r\nFormat/Info                              : Advanced Audio Codec\r\nFormat profile                           : LC\r\nCodec ID                                 : 40\r\nDuration                                 : 52mn 30s\r\nBit rate mode                            : Variable\r\nBit rate                                 : 128 Kbps\r\nMaximum bit rate                         : 576 Kbps\r\nChannel(s)                               : 2 channels\r\nChannel positions                        : Front: L R\r\nSampling rate                            : 48.0 KHz\r\nFrame rate                               : 46.875 fps (1024 spf)\r\nCompression mode                         : Lossy\r\nStream size                              : 48.1 MiB (11%)","torrent":{"xt":"urn:btih:ae6e37e9e1655810575a90e7c148b4b04d5cc9fe","amp;dn":"60+Minutes+AU+-+14-8-2016","amp;tr":["udp%3A%2F%2Ftracker.leechers-paradise.org%3A6969","udp%3A%2F%2Fzer0day.ch%3A1337","udp%3A%2F%2Fopen.demonii.com%3A1337","udp%3A%2F%2Ftracker.coppersurfer.tk%3A6969","udp%3A%2F%2Fexodus.desync.com%3A6969"],"infoHash":"ae6e37e9e1655810575a90e7c148b4b04d5cc9fe","infoHashBuffer":{"type":"Buffer","data":[174,110,55,233,225,101,88,16,87,90,144,231,193,72,180,176,77,92,201,254]},"announce":[],"urlList":[]}}